<svg width="2835" height="1755" viewBox="0 0 2835 1755" fill="none" xmlns="http://www.w3.org/2000/svg">
<g style="mix-blend-mode:multiply" opacity="0.2">
<path d="M2180.4 750.247L2469 684L2715 871.5L2324.63 1192.74L2164.9 1197.13L1846 1205.47L1249.38 1316.9L866.892 1338.51L546.818 1406.14L347.5 1474L24.5 1231.99L299.927 1231.99L494.353 1128.64L649.957 1092.52L1854.89 838.357L2064.65 760.083L2180.4 750.247Z" fill="#F6EBD7"/>
</g>
<g style="mix-blend-mode:multiply" opacity="0.2">
<path d="M2137.42 0L2475 63L2787.5 339L2333.35 421.5L2175.32 445.5L1859.76 493L1280.82 677L903.725 745.5L594.071 852H129L328.232 709.5L508.904 583L659.054 528L1824.81 127.5L2023.7 24L2137.42 0Z" fill="#F6EBD7"/>
</g>
<g style="mix-blend-mode:multiply" opacity="0.2">
<path d="M2175.32 261.5L2333.35 187L2835 481L2333.35 630L2084.74 701.5L1786.41 822.5L1427.04 858L839.727 971L542.38 1057L344.97 1078.5L52.5 1057L344.97 822.5L576.349 766L859.911 603L1365.99 445.5L2040.93 332.5L2175.32 261.5Z" fill="#A68E74"/>
</g>
<g style="mix-blend-mode:multiply" opacity="0.2">
<path d="M2175.32 561L2333.35 486.5L2822.5 592L2506 870L2333.35 1112L2175.32 1065L1885.85 1112L1607.21 1065L1262.61 1112L923.416 1130.5L621.639 1241.5L369.091 1370.5L49.5 1415.5L369.091 929.5L855.972 870L1365.99 745L2040.93 632L2175.32 561Z" fill="#E09132"/>
</g>
</svg>
