<svg width="1920" height="1760" viewBox="0 0 1920 1760" fill="none" xmlns="http://www.w3.org/2000/svg">
<g style="mix-blend-mode:multiply" opacity="0.2">
<path d="M1816.15 857.247L2008.78 772.955L1962.64 1299.74L1800.42 1304.13L1476.52 1312.47L870.569 1423.9L482.092 1445.51L157.009 1513.14L-115 1513.2L-93.7456 1338.99L103.724 1235.64L261.762 1199.52L1485.55 945.357L1698.6 867.082L1816.15 857.247Z" fill="#F6EBD7"/>
</g>
<g style="mix-blend-mode:multiply" opacity="0.2">
<path d="M1772.5 107L1953.5 0L1971.5 528.5L1811 552.5L1490.5 600L902.5 784L519.5 852.5L205 959L-65 992V816.5L118.5 690L271 635L1455 234.5L1657 131L1772.5 107Z" fill="#F6EBD7"/>
</g>
<g style="mix-blend-mode:multiply" opacity="0.2">
<path d="M1811 368.5L1971.5 294V737L1719 808.5L1416 929.5L1051 965L454.5 1078L152.5 1164L-48 1185.5V929.5L187 873L475 710L989 552.5L1674.5 439.5L1811 368.5Z" fill="#A68E74"/>
</g>
<g style="mix-blend-mode:multiply" opacity="0.2">
<path d="M1811 668L1971.5 593.5V1219L1811 1172L1517 1219L1234 1172L884 1219L539.5 1237.5L233 1348.5L-23.5 1477.5V1036.5L471 977L989 852L1674.5 739L1811 668Z" fill="#E09132"/>
</g>
</svg>
