<svg width="1920" height="1017" viewBox="0 0 1920 1017" fill="none" xmlns="http://www.w3.org/2000/svg">
<g style="mix-blend-mode:multiply; isolation: isolate" opacity="0.2">
<path d="M354.482 565.893L209.287 528.932L-184.928 764.212L381.529 808.852L621.065 798.256L1072.51 830.696L1360.21 824.321L1602.67 846.003L1803.59 833.318L1781.88 739.313L1632.45 692.188L1514.47 679.875L601.728 598.486L441.656 565.761L354.482 565.893Z" fill="#F6EBD7"/>
</g>
<g style="mix-blend-mode:multiply; isolation: isolate" opacity="0.2">
<path d="M360.836 154.727L223.445 104.839L228.389 393.883L347.773 399.467L586.153 410.387L1026.84 483.238L1312.11 502.688L1712.79 615.82L1920.03 632.453L1742.62 455.732L1602.71 395.327L1488.16 372.464L599.762 209.413L446.98 162.416L360.836 154.727Z" fill="#F6EBD7"/>
</g>
<g style="mix-blend-mode:multiply; isolation: isolate" opacity="0.2">
<path d="M341.422 299.128L220.296 266.005L235.584 507.582L424.565 534.768L652.555 586.587L923.393 588.883L1367.91 622.619L1593.95 655.398L1742.79 657.75L1733.96 518.148L1558.42 498.323L1340.06 422.899L954.954 361.04L444.7 331.465L341.422 299.128Z" fill="#A68E74"/>
</g>
<g style="mix-blend-mode:multiply; isolation: isolate" opacity="0.2">
<path d="M351.758 462.452L230.632 429.329L-62.5009 702.421L295.985 695.102L587.941 749.179L795.361 710.319L1055.52 719.588L1310.62 713.571L1540.85 759.773L1897.28 674.473L1591.88 595.435L1352.23 568.313L965.29 524.364L455.036 494.788L351.758 462.452Z" fill="#E09132"/>
</g>
<g style="mix-blend-mode:multiply; isolation: isolate" opacity="0.2">
<path d="M1831.69 1233.63L1959.58 1274.87L1332.81 1293.14L1303.48 1254.7L1245.41 1177.94L1023.99 1039.65L940.678 948.228L637.788 825.719L571.841 759.476L980.227 805.012L1131.26 846.353L1197.32 882.027L1678.75 1159.69L1802.6 1206.14L1831.69 1233.63Z" fill="#F6EBD7"/>
</g>
<g style="mix-blend-mode:multiply; isolation: isolate" opacity="0.2">
<path d="M1521.73 1249.87L1610.96 1286.98L1085.51 1298.62L999.336 1239.04L854.181 1168.46L810.105 1080.55L672.857 938.332L569.221 867.084L542.639 818.846L846.286 812.119L914.57 867.835L1109.46 933.652L1299.05 1054.62L1436.78 1218.51L1521.73 1249.87Z" fill="#A68E74"/>
</g>
<g style="mix-blend-mode:multiply; isolation: isolate" opacity="0.2">
<path d="M1166.48 1257.74L1255.71 1294.85L706.528 1408.95L670.623 1291.87L511.342 1200.66L565.564 1130.54L507.929 1046.58L484.128 963.214L350.815 891.527L484.112 769.763L699.398 863.633L792.744 939.696L943.803 1062.49L1081.53 1226.38L1166.48 1257.74Z" fill="#E09132"/>
</g>
</svg>
